<svg width="230" height="224" viewBox="0 0 230 224" fill="none" xmlns="http://www.w3.org/2000/svg">
<path d="M35.2213 152.648H48.2233C48.2233 137.262 67.6495 118.339 83.4446 118.339H108.499V142.731C108.499 158.117 89.0728 177.04 73.2777 177.04V183.365V189.691C89.0728 189.691 108.499 208.614 108.499 224H121.501C121.501 208.614 140.927 189.691 156.722 189.691V183.365V177.04C140.927 177.04 121.501 158.117 121.501 142.731V118.339H146.555C162.35 118.339 181.777 137.262 181.777 152.648H194.779C194.779 137.262 214.205 118.339 230 118.339V105.674C214.205 105.674 194.779 86.7514 194.779 71.3655H181.777C181.777 86.7514 162.35 105.674 146.555 105.674H121.487V81.2826C121.487 65.8968 140.913 46.9739 156.708 46.9739V40.6481V34.3224C140.913 34.3088 121.487 15.3859 121.487 0H114.993H108.499C108.499 15.3859 89.0728 34.3088 73.2777 34.3088V40.6345V46.9603C89.0728 46.9603 108.499 65.8832 108.499 81.269V105.674H83.4446C67.6495 105.674 48.2233 86.7514 48.2233 71.3655H35.2213C35.2213 86.7514 15.7951 105.674 0 105.674V118.339C15.7951 118.339 35.2213 137.262 35.2213 152.648Z" fill="#040000"/>
</svg>
